<?xml version="1.0" standalone="no"?>
<!DOCTYPE svg PUBLIC "-//W3C//DTD SVG 20010904//EN"
 "http://www.w3.org/TR/2001/REC-SVG-20010904/DTD/svg10.dtd">
<svg version="1.0" xmlns="http://www.w3.org/2000/svg"
 width="240.000000pt" height="240.000000pt" viewBox="0 0 240.000000 240.000000"
 preserveAspectRatio="xMidYMid meet">
<metadata>
Created by potrace 1.15, written by Peter Selinger 2001-2017
</metadata>
<g transform="translate(0.000000,240.000000) scale(0.100000,-0.100000)"
fill="#000000" stroke="none">
<path d="M1246 1765 c-24 -8 -60 -36 -90 -69 -30 -32 -71 -64 -99 -76 -48 -21
-49 -21 -150 -4 l-102 17 -50 -25 c-66 -34 -188 -161 -257 -268 -66 -101 -194
-337 -204 -374 -5 -21 -2 -27 21 -36 36 -14 98 -13 89 1 -4 8 0 8 15 0 21 -12
71 -5 71 9 0 4 -10 15 -23 24 -19 15 -19 16 -2 9 23 -9 154 -8 163 2 4 3 -2
21 -11 38 -10 18 -13 26 -6 20 16 -16 61 -17 77 -1 18 18 15 33 -13 66 -35 41
-31 48 8 18 38 -29 77 -34 77 -11 0 11 11 15 35 15 44 0 87 26 80 49 -4 13 5
16 48 18 40 2 56 8 71 25 10 13 23 23 30 24 6 0 16 2 21 4 6 1 20 1 32 0 13
-1 49 15 81 34 39 25 69 36 95 36 20 0 45 4 55 8 9 5 31 16 49 25 18 8 41 13
52 10 12 -3 24 2 31 14 9 14 21 18 45 15 51 -6 75 24 76 96 l2 57 7 -56 c4
-31 10 -61 14 -68 10 -16 45 -13 93 9 31 14 44 26 49 47 19 83 23 88 21 28 -3
-85 18 -85 72 0 23 36 44 65 47 65 5 0 -43 -88 -58 -105 -16 -18 -8 -24 22
-14 20 8 39 28 60 65 41 70 59 81 25 14 -14 -29 -24 -54 -21 -57 14 -15 77 10
101 40 l26 32 -7 -29 c-6 -26 -5 -28 17 -21 13 4 26 10 29 12 12 12 -122 117
-200 157 -111 57 -221 91 -359 110 -136 19 -204 20 -255 1z"/>
<path d="M2087 1413 c-4 -4 -35 -6 -68 -5 l-61 2 28 -38 27 -37 -29 26 c-38
35 -67 49 -98 49 -32 0 -32 -3 1 -48 l27 -37 -40 37 c-43 41 -84 54 -139 44
-50 -10 -54 -30 -14 -73 l34 -36 -46 32 c-79 55 -166 48 -162 -13 2 -25 0 -27
-28 -21 -38 9 -63 -9 -49 -35 6 -10 10 -26 10 -36 0 -16 -1 -16 -18 -1 -33 30
-67 12 -40 -20 12 -15 11 -15 -8 -5 -17 9 -27 7 -57 -14 -21 -14 -37 -31 -37
-39 0 -8 -5 -14 -12 -13 -7 2 -15 -11 -18 -29 l-5 -32 -60 24 c-74 31 -73 31
-87 0 -11 -25 -12 -25 -32 -7 -42 38 -108 34 -121 -8 -6 -20 -7 -20 -27 5 -22
28 -63 33 -72 8 -5 -12 -10 -13 -18 -5 -17 17 -38 -4 -38 -37 -1 -24 -1 -25
-12 -6 -6 11 -12 21 -14 23 -5 7 -65 -30 -76 -47 -6 -10 -19 -16 -28 -14 -19
5 -76 -65 -87 -107 -7 -25 -7 -25 -13 5 -8 43 -40 40 -62 -5 -9 -19 -17 -29
-18 -21 0 10 -3 11 -13 2 -8 -6 -22 -12 -33 -14 -31 -6 -74 -26 -74 -34 0 -5
51 -25 113 -46 61 -22 154 -57 205 -78 130 -55 236 -79 377 -86 154 -7 235 10
370 76 217 108 393 287 510 521 20 41 57 103 81 138 39 56 49 74 31 55z"/>
</g>
</svg>
